<svg xmlns="http://www.w3.org/2000/svg" width="289.111" height="289.757" viewBox="0 0 271.04126 271.6475"><defs><clipPath id="a"><path d="M187.51 245.635h216.833v217.318H187.51V245.635z"/></clipPath></defs><g clip-path="url(#a)" transform="matrix(1.25 0 0 -1.25 -234.388 578.691)"><path d="M296.021 251.045c-57.031 0-103.264 46.234-103.264 103.266 0 57.03 46.233 103.265 103.264 103.265 57.029 0 103.264-46.235 103.264-103.265 0-57.032-46.235-103.266-103.264-103.266m-154.28-50.59h306.856V508.89H141.741V200.455z" fill="#e30613"/><path d="M217.197 337.929v32.762s7.723 1.79 7.723-16.434c0-18.223-7.723-16.328-7.723-16.328m3.914 43.718h-19.89s1.692-11.798 1.692-27.39c0-15.59-1.692-27.283-1.692-27.283h19.89c6.666 0 18.093 4.424 18.093 27.283 0 22.86-11.32 27.39-18.093 27.39M256.238 352.256l3.386 18.435 3.385-18.435h-6.77zm27.086-25.282s-4.444 14.22-7.089 27.283c-2.642 13.05-4.02 27.39-4.02 27.39h-25.181s-1.375-14.327-4.02-27.39c-2.645-13.062-6.984-27.283-6.984-27.283h17.564s-.634 2.423 0 7.163 1.799 7.163 1.799 7.163h8.464s1.376-2.74 1.799-7.27c.436-4.67 0-7.056 0-7.056h17.669z" fill="#1d1d1b"/><path d="M297.714 358.155v14.222s6.03.104 6.03-7.058c0-7.164-6.03-7.164-6.03-7.164M323 326.974s-3.072 6.674-7.194 13.694c-4.021 6.848-6.348 10.324-6.348 10.324s9.522 2.844 9.522 15.275c0 12.711-9.311 15.38-12.802 15.38h-24.441s1.587-10.008 1.587-27.39-1.8-27.283-1.8-27.283h17.882s-1.058 3.266-1.693 9.164c-.635 5.899 0 9.376 0 9.376s2.54-3.371 4.443-9.271c1.905-5.898 1.587-9.269 1.587-9.269H323z" fill="#1d1d1b"/><path d="M318.135 381.647V369.11s3.279 1.58 9.415 1.58c0 0 .526-9.886 0-19.277-.528-9.481-1.692-24.44-1.692-24.44h17.562s-1.163 15.064-1.586 24.44c-.423 9.376 0 19.278 0 19.278s4.656.21 9.205-1.581v12.537h-32.904z" fill="#1d1d1b"/><path d="M366.274 381.647h-15.976s7.09-13.484 10.156-27.39c3.07-13.905 1.271-27.283 1.271-27.283h17.67s-1.905 13.483 1.164 27.284c3.068 13.8 10.262 27.389 10.262 27.389h-15.976l-4.338-15.907-4.233 15.907z" fill="#1d1d1b"/><path d="M318.135 381.647V369.11s3.279 1.58 9.415 1.58c0 0 .526-9.886 0-19.277-.528-9.481-1.692-24.44-1.692-24.44h17.562s-1.163 15.064-1.586 24.44c-.423 9.376 0 19.278 0 19.278s4.656.21 9.205-1.581v12.537h-32.904z" fill="#1d1d1b"/><path d="M366.274 381.647h-15.976s7.09-13.484 10.156-27.39c3.07-13.905 1.271-27.283 1.271-27.283h17.67s-1.905 13.483 1.164 27.284c3.068 13.8 10.262 27.389 10.262 27.389h-15.976l-4.338-15.907-4.233 15.907z" fill="#1d1d1b"/></g></svg>